<?xml version="1.0" encoding="utf-8"?>
<!-- Generator: Adobe Illustrator 27.5.0, SVG Export Plug-In . SVG Version: 6.00 Build 0)  -->
<svg version="1.1" id="Layer_1" xmlns="http://www.w3.org/2000/svg" xmlns:xlink="http://www.w3.org/1999/xlink" x="0px" y="0px"
	 viewBox="0 0 800 800" style="enable-background:new 0 0 800 800;" xml:space="preserve">
<g>
	<polygon style="fill:#F1E3C5;" points="263,318.168 308,337.499 308,471.906 263,459.572 	"/>
	<polygon style="fill:#F1E3C5;" points="378,229.344 445,276.352 445,492.792 391.362,515.834 378,505.978 	"/>
	<polygon style="fill:#F1E3C5;" points="522,287.411 558,307.871 558,475.808 522,462.637 	"/>
	<path style="fill:#FFCF01;" d="M604.92,359.69c0,38.325-9.587,74.347-26.923,105.676C574.829,471.1,571,476.688,568,482.1V303.119
		l-44.769-26.606l-62.161,26.841c-1.511,0.631-2.881,0.469-4.23-0.396c-1.379-0.895-1.839-2.405-1.839-4.033v-29.202l-82.715-55.778
		L316,242.501v81.314c0,1.643-0.889,3.183-2.268,4.077c-1.379,0.865-3.136,0.997-4.647,0.323l-51.038-23.805L205,357.094v125.051
		c-3-5.412-7.005-10.986-10.173-16.72c-17.351-31.343-27.175-67.38-27.175-105.734c0-120.738,97.896-218.611,218.634-218.611
		S604.92,238.951,604.92,359.69z"/>
	<g>
		<g>
			<path style="fill:#005B7F;" d="M579,300.391v164.974c-4,5.735-8,11.323-11,16.735V303.119l-44.769-26.606l-62.161,26.841
				c-1.511,0.631-2.881,0.469-4.23-0.396c-1.379-0.895-1.839-2.405-1.839-4.033v-29.202l-82.715-55.778L316,242.501v81.314
				c0,1.643-0.889,3.183-2.268,4.077c-1.379,0.865-3.136,0.997-4.647,0.323l-51.038-23.805L205,357.094v125.051
				c-3-5.412-6-10.986-10-16.72V355.07c0-1.276-0.011-2.523,0.913-3.432l57.284-56.439c1.437-1.379,4.286-1.775,6.12-0.939
				L308,316.305v-76.752c0-1.804,0.163-3.461,1.761-4.297l60.48-31.167c1.569-0.792,3.245-0.704,4.683,0.293l86.816,58.785
				c1.32,0.909,2.261,2.376,2.261,3.989v24.421l56.996-24.875c1.452-0.616,2.955-0.484,4.305,0.323l49.862,29.261
				C576.6,297.15,579,298.719,579,300.391z"/>
		</g>
		<polygon style="fill:#00BCDD;" points="308,337.499 308,471.906 263,459.572 263,318.168 		"/>
		<polygon style="fill:#00BCDD;" points="445,276.352 445,492.792 391.362,515.834 378,505.978 378,229.344 		"/>
		<polygon style="fill:#00BCDD;" points="558,307.871 558,475.808 522,462.637 522,287.411 		"/>
	</g>
</g>
<g>
	<path style="fill:#F0493E;" d="M257.62,597.349c-0.521-1.562-0.868-2.516-0.868-7.464v-9.548c0-5.642-1.91-7.724-6.249-7.724
		h-3.298v24.736h-9.548v-60.756h14.408c9.895,0,14.148,4.6,14.148,13.975v4.772c0,6.251-1.996,10.329-6.25,12.326
		c4.774,1.995,6.337,6.596,6.337,12.932v9.374c0,2.95,0.087,5.121,1.041,7.377H257.62z M247.205,545.273v18.66h3.732
		c3.558,0,5.728-1.562,5.728-6.422v-5.989c0-4.34-1.475-6.249-4.861-6.249H247.205z"/>
	<path style="fill:#F0493E;" d="M282.09,562.198h13.105v8.678H282.09v17.792h16.491v8.68h-26.039v-60.756h26.039v8.68H282.09
		V562.198z"/>
	<path style="fill:#F0493E;" d="M335.374,597.349h-9.634l-1.65-11.023h-11.717l-1.648,11.023h-8.767l9.721-60.756h13.974
		L335.374,597.349z M313.59,578.082h9.2l-4.601-30.726L313.59,578.082z"/>
	<path style="fill:#F0493E;" d="M339.795,536.593h9.548v52.076h15.709v8.68h-25.257V536.593z"/>
	<path style="fill:#F0493E;" d="M395.509,535.899c9.288,0,14.062,5.555,14.062,15.276v1.909h-9.027v-2.516
		c0-4.34-1.735-5.991-4.774-5.991c-3.038,0-4.774,1.651-4.774,5.991c0,12.498,18.662,14.841,18.662,32.199
		c0,9.721-4.861,15.276-14.235,15.276c-9.374,0-14.234-5.555-14.234-15.276v-3.731h9.026v4.338c0,4.34,1.91,5.904,4.948,5.904
		c3.039,0,4.948-1.564,4.948-5.904c0-12.498-18.661-14.841-18.661-32.199C381.448,541.454,386.222,535.899,395.509,535.899z"/>
	<path style="fill:#F0493E;" d="M412.341,536.593h29.509v8.68h-9.982v52.076h-9.546v-52.076h-9.982V536.593z"/>
	<path style="fill:#F0493E;" d="M473.612,597.349h-9.635l-1.648-11.023h-11.717l-1.649,11.023h-8.767l9.721-60.756h13.973
		L473.612,597.349z M451.826,578.082h9.201l-4.6-30.726L451.826,578.082z"/>
	<path style="fill:#F0493E;" d="M475.254,536.593h29.509v8.68h-9.98v52.076h-9.548v-52.076h-9.982V536.593z"/>
	<path style="fill:#F0493E;" d="M518.47,562.198h13.107v8.678H518.47v17.792h16.491v8.68h-26.037v-60.756h26.037v8.68H518.47
		V562.198z"/>
</g>
<g>
	<path style="fill:#D82435;" d="M275.877,607.894l2.177,0.878l-6.075,13.767v9.237h-2.354v-9.237l-6.041-13.767l2.178-0.878
		l5.057,11.905L275.877,607.894z"/>
	<path style="fill:#D82435;" d="M298.391,620.045c0,2.95,0.105,12.048-6.497,12.048c-6.674,0-6.498-9.027-6.498-12.048
		c0-3.862,0.246-12.012,6.498-12.012C298.496,608.033,298.391,616.956,298.391,620.045z M287.854,620.045
		c0,6.322,0.738,9.834,4.04,9.834c4.074,0,4.038-5.761,4.038-9.834c0-4.425,0.106-9.798-4.038-9.798
		C287.75,610.247,287.854,616.605,287.854,620.045z"/>
	<path style="fill:#D82435;" d="M309.598,608.35v17.034c0,2.318,0.456,4.495,3.372,4.495c2.915,0,3.407-2.214,3.407-4.495V608.35
		h2.353v17.736c0,3.652-2.283,6.007-5.76,6.007c-3.547,0-5.725-2.423-5.725-5.902V608.35H309.598z"/>
	<path style="fill:#D82435;" d="M329.197,608.35h6.322c2.317,0,5.233,2.002,5.233,6.217c0,2.879-1.159,5.619-4.039,6.602
		l4.848,10.044l-2.108,1.019l-5.268-10.888h-2.634v10.432h-2.353V608.35z M331.55,619.238h3.442c2.037,0,3.301-1.511,3.301-4.671
		c0-3.055-1.475-4.11-3.863-4.11h-2.88V619.238z"/>
	<path style="fill:#D82435;" d="M375.068,610.456h-5.057v-2.107h12.363v2.107h-4.953v21.32h-2.353V610.456z"/>
	<path style="fill:#D82435;" d="M394.072,624.54l-1.826,7.692l-2.318-0.632l5.935-23.25h2.81l5.936,23.25l-2.318,0.632l-1.826-7.692
		H394.072z M397.303,611.476h-0.071l-2.599,10.958h5.269L397.303,611.476z"/>
	<path style="fill:#D82435;" d="M424.523,630.055c-1.509,1.229-3.477,2.038-5.444,2.038c-6.041,0-7.094-7.306-7.094-11.977
		c0-4.391,1.019-12.082,6.848-12.082c2.635,0,4.566,1.616,5.866,3.759l-2.072,1.263c-0.843-1.509-2.072-2.809-3.933-2.809
		c-3.898,0-4.249,7.165-4.249,9.939c0,8.043,2.353,9.693,4.671,9.693c0.983,0,2.248-0.422,3.055-1.09v-7.058h-4.391v-2.109h6.743
		V630.055z"/>
	<path style="fill:#D82435;" d="M434.816,608.35h2.353v21.32h9.625v2.107h-11.977V608.35z"/>
	<path style="fill:#D82435;" d="M459.297,610.456h-3.16v-2.107h8.709v2.107h-3.196v19.213h3.196v2.107h-8.709v-2.107h3.16V610.456z"
		/>
	<path style="fill:#D82435;" d="M475.455,608.35h2.95l6.955,19.703l0.071-0.071l-0.107-5.232V608.35h2.355v23.426h-2.952
		l-6.953-19.738l-0.071,0.071l0.105,5.303v14.364h-2.353V608.35z"/>
	<path style="fill:#D82435;" d="M497.62,608.35h11.414v2.107h-9.062v7.728h7.482v2.107h-7.482v9.378h9.062v2.107H497.62V608.35z"/>
</g>
</svg>
